<mxfile host="app.diagrams.net" modified="2023-09-24T07:25:01.441Z" agent="Mozilla/5.0 (Windows NT 10.0; Win64; x64) AppleWebKit/537.36 (KHTML, like Gecko) Chrome/117.0.0.0 Safari/537.36" etag="-1s9lcKC67aWbI9e0MWD" version="21.8.1" type="device">
  <diagram id="R2lEEEUBdFMjLlhIrx00" name="Page-1">
    <mxGraphModel dx="2313" dy="3277" grid="1" gridSize="10" guides="1" tooltips="1" connect="1" arrows="1" fold="1" page="1" pageScale="1" pageWidth="850" pageHeight="1100" math="0" shadow="0" extFonts="Permanent Marker^https://fonts.googleapis.com/css?family=Permanent+Marker">
      <root>
        <mxCell id="0" />
        <mxCell id="1" parent="0" />
        <mxCell id="PYLvjWSTo0g7mIUMMPKN-5" value="Book" style="swimlane;childLayout=stackLayout;horizontal=1;startSize=50;horizontalStack=0;rounded=1;fontSize=14;fontStyle=0;strokeWidth=2;resizeParent=0;resizeLast=1;shadow=0;dashed=0;align=center;arcSize=4;whiteSpace=wrap;html=1;" parent="1" vertex="1">
          <mxGeometry y="-60" width="160" height="210" as="geometry" />
        </mxCell>
        <mxCell id="PYLvjWSTo0g7mIUMMPKN-6" value="reviews and ratings&lt;br&gt;more editions&lt;br&gt;cover&lt;br&gt;title&lt;br&gt;description&lt;br&gt;about author&lt;br&gt;genre&lt;br&gt;quotes&lt;br&gt;discussions&lt;br&gt;book statistics" style="align=left;strokeColor=none;fillColor=none;spacingLeft=4;fontSize=12;verticalAlign=top;resizable=0;rotatable=0;part=1;html=1;" parent="PYLvjWSTo0g7mIUMMPKN-5" vertex="1">
          <mxGeometry y="50" width="160" height="160" as="geometry" />
        </mxCell>
        <mxCell id="PYLvjWSTo0g7mIUMMPKN-7" value="Author" style="swimlane;childLayout=stackLayout;horizontal=1;startSize=50;horizontalStack=0;rounded=1;fontSize=14;fontStyle=0;strokeWidth=2;resizeParent=0;resizeLast=1;shadow=0;dashed=0;align=center;arcSize=4;whiteSpace=wrap;html=1;" parent="1" vertex="1">
          <mxGeometry x="20" y="270" width="160" height="210" as="geometry" />
        </mxCell>
        <mxCell id="PYLvjWSTo0g7mIUMMPKN-8" value="Author&#39;s followers&lt;br&gt;Author&#39;s books&lt;br&gt;Author&#39;s series&lt;br&gt;Author&#39;s quotes&lt;br&gt;Author&#39;s videos&lt;br&gt;Topic mentioning the author&lt;br&gt;Related news&lt;br&gt;Polls&lt;br&gt;follow author&lt;br&gt;" style="align=left;strokeColor=none;fillColor=none;spacingLeft=4;fontSize=12;verticalAlign=top;resizable=0;rotatable=0;part=1;html=1;" parent="PYLvjWSTo0g7mIUMMPKN-7" vertex="1">
          <mxGeometry y="50" width="160" height="160" as="geometry" />
        </mxCell>
        <mxCell id="PYLvjWSTo0g7mIUMMPKN-9" value="Shelf" style="swimlane;childLayout=stackLayout;horizontal=1;startSize=50;horizontalStack=0;rounded=1;fontSize=14;fontStyle=0;strokeWidth=2;resizeParent=0;resizeLast=1;shadow=0;dashed=0;align=center;arcSize=4;whiteSpace=wrap;html=1;" parent="1" vertex="1">
          <mxGeometry x="-220" y="370" width="160" height="120" as="geometry" />
        </mxCell>
        <mxCell id="PYLvjWSTo0g7mIUMMPKN-10" value="want to read&lt;br&gt;read&lt;br&gt;currently reading&lt;br&gt;add shelf" style="align=left;strokeColor=none;fillColor=none;spacingLeft=4;fontSize=12;verticalAlign=top;resizable=0;rotatable=0;part=1;html=1;" parent="PYLvjWSTo0g7mIUMMPKN-9" vertex="1">
          <mxGeometry y="50" width="160" height="70" as="geometry" />
        </mxCell>
        <mxCell id="PYLvjWSTo0g7mIUMMPKN-11" value="Genre" style="swimlane;childLayout=stackLayout;horizontal=1;startSize=50;horizontalStack=0;rounded=1;fontSize=14;fontStyle=0;strokeWidth=2;resizeParent=0;resizeLast=1;shadow=0;dashed=0;align=center;arcSize=4;whiteSpace=wrap;html=1;" parent="1" vertex="1">
          <mxGeometry x="310" y="55" width="160" height="120" as="geometry" />
        </mxCell>
        <mxCell id="PYLvjWSTo0g7mIUMMPKN-12" value="New Releases&lt;br&gt;New Releases this week&lt;br&gt;Related News&lt;br&gt;tagged in the genre" style="align=left;strokeColor=none;fillColor=none;spacingLeft=4;fontSize=12;verticalAlign=top;resizable=0;rotatable=0;part=1;html=1;" parent="PYLvjWSTo0g7mIUMMPKN-11" vertex="1">
          <mxGeometry y="50" width="160" height="70" as="geometry" />
        </mxCell>
        <mxCell id="PYLvjWSTo0g7mIUMMPKN-13" value="User" style="swimlane;childLayout=stackLayout;horizontal=1;startSize=50;horizontalStack=0;rounded=1;fontSize=14;fontStyle=0;strokeWidth=2;resizeParent=0;resizeLast=1;shadow=0;dashed=0;align=center;arcSize=4;whiteSpace=wrap;html=1;" parent="1" vertex="1">
          <mxGeometry x="360" y="211" width="160" height="210" as="geometry" />
        </mxCell>
        <mxCell id="PYLvjWSTo0g7mIUMMPKN-14" value="Full Name&lt;br&gt;display name&lt;br&gt;profile&lt;br&gt;details&lt;br&gt;ratings and reviews&lt;br&gt;profile photo&lt;br&gt;book shelves&lt;br&gt;quotes&lt;br&gt;friend&#39;s comments" style="align=left;strokeColor=none;fillColor=none;spacingLeft=4;fontSize=12;verticalAlign=top;resizable=0;rotatable=0;part=1;html=1;" parent="PYLvjWSTo0g7mIUMMPKN-13" vertex="1">
          <mxGeometry y="50" width="160" height="160" as="geometry" />
        </mxCell>
        <mxCell id="PYLvjWSTo0g7mIUMMPKN-15" value="Quotes" style="swimlane;childLayout=stackLayout;horizontal=1;startSize=50;horizontalStack=0;rounded=1;fontSize=14;fontStyle=0;strokeWidth=2;resizeParent=0;resizeLast=1;shadow=0;dashed=0;align=center;arcSize=4;whiteSpace=wrap;html=1;" parent="1" vertex="1">
          <mxGeometry x="10" y="-290" width="160" height="160" as="geometry" />
        </mxCell>
        <mxCell id="PYLvjWSTo0g7mIUMMPKN-16" value="All Quotes&lt;br&gt;Add a quote&lt;br&gt;tags&lt;br&gt;content&lt;br&gt;likes&lt;br&gt;books&lt;br&gt;author" style="align=left;strokeColor=none;fillColor=none;spacingLeft=4;fontSize=12;verticalAlign=top;resizable=0;rotatable=0;part=1;html=1;" parent="PYLvjWSTo0g7mIUMMPKN-15" vertex="1">
          <mxGeometry y="50" width="160" height="110" as="geometry" />
        </mxCell>
        <mxCell id="PYLvjWSTo0g7mIUMMPKN-17" value="Questions" style="swimlane;childLayout=stackLayout;horizontal=1;startSize=50;horizontalStack=0;rounded=1;fontSize=14;fontStyle=0;strokeWidth=2;resizeParent=0;resizeLast=1;shadow=0;dashed=0;align=center;arcSize=4;whiteSpace=wrap;html=1;" parent="1" vertex="1">
          <mxGeometry x="265" y="-240" width="160" height="130" as="geometry" />
        </mxCell>
        <mxCell id="PYLvjWSTo0g7mIUMMPKN-18" value="unanswered questions&lt;br&gt;answered questions&lt;br&gt;reader&#39;s Q &amp;amp;&amp;nbsp; A&lt;br&gt;about goodreads Q &amp;amp; A&lt;br&gt;" style="align=left;strokeColor=none;fillColor=none;spacingLeft=4;fontSize=12;verticalAlign=top;resizable=0;rotatable=0;part=1;html=1;" parent="PYLvjWSTo0g7mIUMMPKN-17" vertex="1">
          <mxGeometry y="50" width="160" height="80" as="geometry" />
        </mxCell>
        <mxCell id="PYLvjWSTo0g7mIUMMPKN-19" value="Series" style="swimlane;childLayout=stackLayout;horizontal=1;startSize=50;horizontalStack=0;rounded=1;fontSize=14;fontStyle=0;strokeWidth=2;resizeParent=0;resizeLast=1;shadow=0;dashed=0;align=center;arcSize=4;whiteSpace=wrap;html=1;" parent="1" vertex="1">
          <mxGeometry x="-280" y="70" width="160" height="120" as="geometry" />
        </mxCell>
        <mxCell id="PYLvjWSTo0g7mIUMMPKN-20" value="Name&lt;br&gt;No of Books&lt;br&gt;Description&lt;br&gt;Ratings" style="align=left;strokeColor=none;fillColor=none;spacingLeft=4;fontSize=12;verticalAlign=top;resizable=0;rotatable=0;part=1;html=1;" parent="PYLvjWSTo0g7mIUMMPKN-19" vertex="1">
          <mxGeometry y="50" width="160" height="70" as="geometry" />
        </mxCell>
        <mxCell id="PYLvjWSTo0g7mIUMMPKN-21" value="Discussions" style="swimlane;childLayout=stackLayout;horizontal=1;startSize=50;horizontalStack=0;rounded=1;fontSize=14;fontStyle=0;strokeWidth=2;resizeParent=0;resizeLast=1;shadow=0;dashed=0;align=center;arcSize=4;whiteSpace=wrap;html=1;" parent="1" vertex="1">
          <mxGeometry x="-230" y="-180" width="160" height="120" as="geometry" />
        </mxCell>
        <mxCell id="PYLvjWSTo0g7mIUMMPKN-22" value="Topics about this book&lt;br&gt;topic that mention this book&lt;br&gt;see all book Discussions&lt;br&gt;Post a new topic" style="align=left;strokeColor=none;fillColor=none;spacingLeft=4;fontSize=12;verticalAlign=top;resizable=0;rotatable=0;part=1;html=1;" parent="PYLvjWSTo0g7mIUMMPKN-21" vertex="1">
          <mxGeometry y="50" width="160" height="70" as="geometry" />
        </mxCell>
        <mxCell id="PYLvjWSTo0g7mIUMMPKN-24" value="Lists" style="swimlane;childLayout=stackLayout;horizontal=1;startSize=50;horizontalStack=0;rounded=1;fontSize=14;fontStyle=0;strokeWidth=2;resizeParent=0;resizeLast=1;shadow=0;dashed=0;align=center;arcSize=4;whiteSpace=wrap;html=1;" parent="1" vertex="1">
          <mxGeometry x="340" y="490" width="160" height="140" as="geometry" />
        </mxCell>
        <mxCell id="PYLvjWSTo0g7mIUMMPKN-25" value="create a new list&lt;br&gt;list i have created&lt;br&gt;all lists&lt;br&gt;lists i have liked&lt;br&gt;lists i have voted on" style="align=left;strokeColor=none;fillColor=none;spacingLeft=4;fontSize=12;verticalAlign=top;resizable=0;rotatable=0;part=1;html=1;" parent="PYLvjWSTo0g7mIUMMPKN-24" vertex="1">
          <mxGeometry y="50" width="160" height="90" as="geometry" />
        </mxCell>
        <mxCell id="PYLvjWSTo0g7mIUMMPKN-27" value="Friends &amp;amp; Followings" style="swimlane;childLayout=stackLayout;horizontal=1;startSize=50;horizontalStack=0;rounded=1;fontSize=14;fontStyle=0;strokeWidth=2;resizeParent=0;resizeLast=1;shadow=0;dashed=0;align=center;arcSize=4;whiteSpace=wrap;html=1;" parent="1" vertex="1">
          <mxGeometry x="50" y="690" width="160" height="90" as="geometry" />
        </mxCell>
        <mxCell id="PYLvjWSTo0g7mIUMMPKN-28" value="Lists i have liked&lt;br&gt;list i have voted on" style="align=left;strokeColor=none;fillColor=none;spacingLeft=4;fontSize=12;verticalAlign=top;resizable=0;rotatable=0;part=1;html=1;" parent="PYLvjWSTo0g7mIUMMPKN-27" vertex="1">
          <mxGeometry y="50" width="160" height="40" as="geometry" />
        </mxCell>
        <mxCell id="PYLvjWSTo0g7mIUMMPKN-33" value="Related News" style="swimlane;childLayout=stackLayout;horizontal=1;startSize=50;horizontalStack=0;rounded=1;fontSize=14;fontStyle=0;strokeWidth=2;resizeParent=0;resizeLast=1;shadow=0;dashed=0;align=center;arcSize=4;whiteSpace=wrap;html=1;" parent="1" vertex="1">
          <mxGeometry x="290" y="650" width="160" height="90" as="geometry" />
        </mxCell>
        <mxCell id="PYLvjWSTo0g7mIUMMPKN-34" value="Articles" style="align=left;strokeColor=none;fillColor=none;spacingLeft=4;fontSize=12;verticalAlign=top;resizable=0;rotatable=0;part=1;html=1;" parent="PYLvjWSTo0g7mIUMMPKN-33" vertex="1">
          <mxGeometry y="50" width="160" height="40" as="geometry" />
        </mxCell>
        <mxCell id="FwS4AEKnAiy2oQh9NjkK-1" value="" style="edgeStyle=entityRelationEdgeStyle;fontSize=12;html=1;endArrow=ERoneToMany;rounded=0;endSize=20;startSize=20;" parent="1" source="PYLvjWSTo0g7mIUMMPKN-5" target="PYLvjWSTo0g7mIUMMPKN-11" edge="1">
          <mxGeometry width="100" height="100" relative="1" as="geometry">
            <mxPoint x="535" y="-10" as="sourcePoint" />
            <mxPoint x="475" y="145" as="targetPoint" />
            <Array as="points">
              <mxPoint x="425" y="135" />
              <mxPoint x="475" y="130" />
            </Array>
          </mxGeometry>
        </mxCell>
        <mxCell id="PYLvjWSTo0g7mIUMMPKN-52" value="" style="edgeStyle=entityRelationEdgeStyle;fontSize=12;html=1;endArrow=ERmany;startArrow=ERmany;rounded=0;endSize=20;startSize=20;" parent="1" source="PYLvjWSTo0g7mIUMMPKN-8" target="PYLvjWSTo0g7mIUMMPKN-6" edge="1">
          <mxGeometry width="100" height="100" relative="1" as="geometry">
            <mxPoint x="60" y="851.04" as="sourcePoint" />
            <mxPoint x="184" y="170.00000000000003" as="targetPoint" />
            <Array as="points">
              <mxPoint x="-1040" y="956.04" />
            </Array>
          </mxGeometry>
        </mxCell>
        <mxCell id="FwS4AEKnAiy2oQh9NjkK-4" value="" style="edgeStyle=entityRelationEdgeStyle;fontSize=12;html=1;endArrow=ERoneToMany;rounded=0;endSize=20;startSize=20;entryX=0.996;entryY=0.144;entryDx=0;entryDy=0;entryPerimeter=0;" parent="1" source="PYLvjWSTo0g7mIUMMPKN-14" target="PYLvjWSTo0g7mIUMMPKN-5" edge="1">
          <mxGeometry width="100" height="100" relative="1" as="geometry">
            <mxPoint x="230" as="sourcePoint" />
            <mxPoint x="300" y="35" as="targetPoint" />
            <Array as="points">
              <mxPoint x="495" y="20" />
              <mxPoint x="545" y="15" />
              <mxPoint x="340" y="-75" />
              <mxPoint x="270" y="35" />
            </Array>
          </mxGeometry>
        </mxCell>
        <mxCell id="FwS4AEKnAiy2oQh9NjkK-8" value="" style="edgeStyle=entityRelationEdgeStyle;fontSize=12;html=1;endArrow=ERmandOne;startArrow=ERmandOne;rounded=0;entryX=-0.002;entryY=0.189;entryDx=0;entryDy=0;entryPerimeter=0;endSize=20;startSize=20;" parent="1" source="PYLvjWSTo0g7mIUMMPKN-9" target="PYLvjWSTo0g7mIUMMPKN-5" edge="1">
          <mxGeometry width="100" height="100" relative="1" as="geometry">
            <mxPoint x="-210" y="155" as="sourcePoint" />
            <mxPoint x="-110" y="55" as="targetPoint" />
          </mxGeometry>
        </mxCell>
        <mxCell id="FwS4AEKnAiy2oQh9NjkK-10" value="" style="edgeStyle=entityRelationEdgeStyle;fontSize=12;html=1;endArrow=ERoneToMany;rounded=0;endSize=20;startSize=13;" parent="1" source="PYLvjWSTo0g7mIUMMPKN-5" target="PYLvjWSTo0g7mIUMMPKN-19" edge="1">
          <mxGeometry width="100" height="100" relative="1" as="geometry">
            <mxPoint x="-70" y="60" as="sourcePoint" />
            <mxPoint x="-40.000000000000036" y="9.9999999999999" as="targetPoint" />
            <Array as="points">
              <mxPoint x="-219.04" y="26.14" />
            </Array>
          </mxGeometry>
        </mxCell>
        <mxCell id="FwS4AEKnAiy2oQh9NjkK-18" value="Reviews and Ratings" style="swimlane;childLayout=stackLayout;horizontal=1;startSize=50;horizontalStack=0;rounded=1;fontSize=14;fontStyle=0;strokeWidth=2;resizeParent=0;resizeLast=1;shadow=0;dashed=0;align=center;arcSize=4;whiteSpace=wrap;html=1;" parent="1" vertex="1">
          <mxGeometry x="-250" y="650" width="160" height="170" as="geometry" />
        </mxCell>
        <mxCell id="FwS4AEKnAiy2oQh9NjkK-19" value="Followers&lt;br&gt;no of reviews&lt;br&gt;content&amp;nbsp;&lt;br&gt;database&lt;br&gt;likes&lt;br&gt;comments&lt;br&gt;settings" style="align=left;strokeColor=none;fillColor=none;spacingLeft=4;fontSize=12;verticalAlign=top;resizable=0;rotatable=0;part=1;html=1;" parent="FwS4AEKnAiy2oQh9NjkK-18" vertex="1">
          <mxGeometry y="50" width="160" height="120" as="geometry" />
        </mxCell>
        <mxCell id="F_ZXuF-Rk1d35hYwaX2O-3" value="" style="edgeStyle=entityRelationEdgeStyle;fontSize=12;html=1;endArrow=ERzeroToMany;endFill=1;rounded=0;startSize=13;endSize=18;exitX=0.59;exitY=1.002;exitDx=0;exitDy=0;exitPerimeter=0;" parent="1" source="PYLvjWSTo0g7mIUMMPKN-8" target="PYLvjWSTo0g7mIUMMPKN-27" edge="1">
          <mxGeometry width="100" height="100" relative="1" as="geometry">
            <mxPoint x="170" y="570" as="sourcePoint" />
            <mxPoint x="70" y="632.0689655172414" as="targetPoint" />
            <Array as="points">
              <mxPoint x="70" y="637.5" />
            </Array>
          </mxGeometry>
        </mxCell>
        <mxCell id="F_ZXuF-Rk1d35hYwaX2O-4" value="" style="edgeStyle=entityRelationEdgeStyle;fontSize=12;html=1;endArrow=ERzeroToMany;endFill=1;rounded=0;startSize=11;endSize=15;exitX=1;exitY=0.869;exitDx=0;exitDy=0;exitPerimeter=0;" parent="1" source="PYLvjWSTo0g7mIUMMPKN-8" target="PYLvjWSTo0g7mIUMMPKN-33" edge="1">
          <mxGeometry width="100" height="100" relative="1" as="geometry">
            <mxPoint x="170" y="520" as="sourcePoint" />
            <mxPoint x="-10" y="400" as="targetPoint" />
          </mxGeometry>
        </mxCell>
        <mxCell id="F_ZXuF-Rk1d35hYwaX2O-5" value="" style="edgeStyle=entityRelationEdgeStyle;fontSize=12;html=1;endArrow=ERoneToMany;rounded=0;exitX=1;exitY=0.931;exitDx=0;exitDy=0;exitPerimeter=0;startSize=9;endSize=20;" parent="1" source="PYLvjWSTo0g7mIUMMPKN-6" target="PYLvjWSTo0g7mIUMMPKN-24" edge="1">
          <mxGeometry width="100" height="100" relative="1" as="geometry">
            <mxPoint x="250" y="240" as="sourcePoint" />
            <mxPoint x="330" y="450" as="targetPoint" />
          </mxGeometry>
        </mxCell>
        <mxCell id="F_ZXuF-Rk1d35hYwaX2O-6" value="" style="edgeStyle=entityRelationEdgeStyle;fontSize=12;html=1;endArrow=ERzeroToMany;endFill=1;rounded=0;exitX=0.004;exitY=0.891;exitDx=0;exitDy=0;exitPerimeter=0;startSize=10;endSize=17;" parent="1" source="PYLvjWSTo0g7mIUMMPKN-14" target="FwS4AEKnAiy2oQh9NjkK-18" edge="1">
          <mxGeometry width="100" height="100" relative="1" as="geometry">
            <mxPoint x="-40" y="450" as="sourcePoint" />
            <mxPoint x="60" y="350" as="targetPoint" />
          </mxGeometry>
        </mxCell>
        <mxCell id="F_ZXuF-Rk1d35hYwaX2O-7" value="" style="edgeStyle=entityRelationEdgeStyle;fontSize=12;html=1;endArrow=ERzeroToMany;endFill=1;rounded=0;endSize=17;entryX=1;entryY=0.75;entryDx=0;entryDy=0;" parent="1" source="PYLvjWSTo0g7mIUMMPKN-8" target="FwS4AEKnAiy2oQh9NjkK-19" edge="1">
          <mxGeometry width="100" height="100" relative="1" as="geometry">
            <mxPoint x="-240" y="860" as="sourcePoint" />
            <mxPoint x="-140" y="760" as="targetPoint" />
            <Array as="points">
              <mxPoint x="-230" y="880" />
              <mxPoint x="-250" y="740" />
            </Array>
          </mxGeometry>
        </mxCell>
        <mxCell id="igiowY0TrKlYKmefXzV6-1" value="Book Recommendation" style="swimlane;childLayout=stackLayout;horizontal=1;startSize=50;horizontalStack=0;rounded=1;fontSize=14;fontStyle=0;strokeWidth=2;resizeParent=0;resizeLast=1;shadow=0;dashed=0;align=center;arcSize=4;whiteSpace=wrap;html=1;" vertex="1" parent="1">
          <mxGeometry x="-390" y="270" width="160" height="120" as="geometry" />
        </mxCell>
        <mxCell id="igiowY0TrKlYKmefXzV6-2" value="book title&lt;br&gt;author&lt;br&gt;rating" style="align=left;strokeColor=none;fillColor=none;spacingLeft=4;fontSize=12;verticalAlign=top;resizable=0;rotatable=0;part=1;html=1;" vertex="1" parent="igiowY0TrKlYKmefXzV6-1">
          <mxGeometry y="50" width="160" height="70" as="geometry" />
        </mxCell>
        <mxCell id="igiowY0TrKlYKmefXzV6-3" value="" style="edgeStyle=entityRelationEdgeStyle;fontSize=12;html=1;endArrow=ERoneToMany;rounded=0;startSize=9;endSize=15;" edge="1" parent="1" source="PYLvjWSTo0g7mIUMMPKN-6" target="igiowY0TrKlYKmefXzV6-1">
          <mxGeometry width="100" height="100" relative="1" as="geometry">
            <mxPoint x="-260" y="460" as="sourcePoint" />
            <mxPoint x="-160" y="360" as="targetPoint" />
          </mxGeometry>
        </mxCell>
        <mxCell id="igiowY0TrKlYKmefXzV6-5" value="" style="edgeStyle=entityRelationEdgeStyle;fontSize=12;html=1;endArrow=ERoneToMany;rounded=0;startSize=11;endSize=17;exitX=1.004;exitY=0.684;exitDx=0;exitDy=0;exitPerimeter=0;" edge="1" parent="1" source="PYLvjWSTo0g7mIUMMPKN-6" target="PYLvjWSTo0g7mIUMMPKN-16">
          <mxGeometry width="100" height="100" relative="1" as="geometry">
            <mxPoint x="160" y="65" as="sourcePoint" />
            <mxPoint x="230" y="-260" as="targetPoint" />
          </mxGeometry>
        </mxCell>
        <mxCell id="igiowY0TrKlYKmefXzV6-6" value="" style="edgeStyle=entityRelationEdgeStyle;fontSize=12;html=1;endArrow=ERoneToMany;rounded=0;endSize=15;exitX=0.298;exitY=-0.005;exitDx=0;exitDy=0;exitPerimeter=0;" edge="1" parent="1" source="PYLvjWSTo0g7mIUMMPKN-5" target="PYLvjWSTo0g7mIUMMPKN-21">
          <mxGeometry width="100" height="100" relative="1" as="geometry">
            <mxPoint x="-60" y="-40" as="sourcePoint" />
            <mxPoint x="40" y="-140" as="targetPoint" />
          </mxGeometry>
        </mxCell>
        <mxCell id="igiowY0TrKlYKmefXzV6-7" value="" style="edgeStyle=entityRelationEdgeStyle;fontSize=12;html=1;endArrow=ERoneToMany;rounded=0;endSize=15;exitX=0.25;exitY=0;exitDx=0;exitDy=0;" edge="1" parent="1" source="PYLvjWSTo0g7mIUMMPKN-5" target="PYLvjWSTo0g7mIUMMPKN-18">
          <mxGeometry width="100" height="100" relative="1" as="geometry">
            <mxPoint x="58" y="19" as="sourcePoint" />
            <mxPoint x="-60" y="-110" as="targetPoint" />
          </mxGeometry>
        </mxCell>
        <mxCell id="igiowY0TrKlYKmefXzV6-8" value="want to read" style="swimlane;childLayout=stackLayout;horizontal=1;startSize=50;horizontalStack=0;rounded=1;fontSize=14;fontStyle=0;strokeWidth=2;resizeParent=0;resizeLast=1;shadow=0;dashed=0;align=center;arcSize=4;whiteSpace=wrap;html=1;" vertex="1" parent="1">
          <mxGeometry x="-690" y="380" width="160" height="120" as="geometry" />
        </mxCell>
        <mxCell id="igiowY0TrKlYKmefXzV6-9" value="no of books&lt;br&gt;title" style="align=left;strokeColor=none;fillColor=none;spacingLeft=4;fontSize=12;verticalAlign=top;resizable=0;rotatable=0;part=1;html=1;" vertex="1" parent="igiowY0TrKlYKmefXzV6-8">
          <mxGeometry y="50" width="160" height="70" as="geometry" />
        </mxCell>
        <mxCell id="igiowY0TrKlYKmefXzV6-10" value="currently Reading" style="swimlane;childLayout=stackLayout;horizontal=1;startSize=50;horizontalStack=0;rounded=1;fontSize=14;fontStyle=0;strokeWidth=2;resizeParent=0;resizeLast=1;shadow=0;dashed=0;align=center;arcSize=4;whiteSpace=wrap;html=1;" vertex="1" parent="1">
          <mxGeometry x="-690" y="540" width="160" height="120" as="geometry" />
        </mxCell>
        <mxCell id="igiowY0TrKlYKmefXzV6-11" value="no of books&lt;br&gt;title" style="align=left;strokeColor=none;fillColor=none;spacingLeft=4;fontSize=12;verticalAlign=top;resizable=0;rotatable=0;part=1;html=1;" vertex="1" parent="igiowY0TrKlYKmefXzV6-10">
          <mxGeometry y="50" width="160" height="70" as="geometry" />
        </mxCell>
        <mxCell id="igiowY0TrKlYKmefXzV6-12" value="Read" style="swimlane;childLayout=stackLayout;horizontal=1;startSize=50;horizontalStack=0;rounded=1;fontSize=14;fontStyle=0;strokeWidth=2;resizeParent=0;resizeLast=1;shadow=0;dashed=0;align=center;arcSize=4;whiteSpace=wrap;html=1;" vertex="1" parent="1">
          <mxGeometry x="-690" y="700" width="160" height="120" as="geometry" />
        </mxCell>
        <mxCell id="igiowY0TrKlYKmefXzV6-13" value="no of books&lt;br&gt;title" style="align=left;strokeColor=none;fillColor=none;spacingLeft=4;fontSize=12;verticalAlign=top;resizable=0;rotatable=0;part=1;html=1;" vertex="1" parent="igiowY0TrKlYKmefXzV6-12">
          <mxGeometry y="50" width="160" height="70" as="geometry" />
        </mxCell>
        <mxCell id="igiowY0TrKlYKmefXzV6-15" value="" style="edgeStyle=entityRelationEdgeStyle;fontSize=12;html=1;endArrow=ERmandOne;startArrow=ERmandOne;rounded=0;endSize=17;startSize=17;" edge="1" parent="1" source="igiowY0TrKlYKmefXzV6-8" target="PYLvjWSTo0g7mIUMMPKN-9">
          <mxGeometry width="100" height="100" relative="1" as="geometry">
            <mxPoint x="-470" y="511" as="sourcePoint" />
            <mxPoint x="-100" y="421" as="targetPoint" />
            <Array as="points">
              <mxPoint x="-410" y="421" />
              <mxPoint x="-300" y="461" />
              <mxPoint x="-210" y="421" />
            </Array>
          </mxGeometry>
        </mxCell>
        <mxCell id="igiowY0TrKlYKmefXzV6-16" value="" style="edgeStyle=entityRelationEdgeStyle;fontSize=12;html=1;endArrow=ERmandOne;startArrow=ERmandOne;rounded=0;startSize=17;" edge="1" parent="1" source="igiowY0TrKlYKmefXzV6-10" target="PYLvjWSTo0g7mIUMMPKN-9">
          <mxGeometry width="100" height="100" relative="1" as="geometry">
            <mxPoint x="-500" y="530" as="sourcePoint" />
            <mxPoint x="-190" y="520" as="targetPoint" />
            <Array as="points">
              <mxPoint x="-380" y="511" />
              <mxPoint x="-270" y="551" />
              <mxPoint x="-180" y="511" />
            </Array>
          </mxGeometry>
        </mxCell>
        <mxCell id="igiowY0TrKlYKmefXzV6-17" value="" style="edgeStyle=entityRelationEdgeStyle;fontSize=12;html=1;endArrow=ERmandOne;startArrow=ERmandOne;rounded=0;startSize=15;" edge="1" parent="1" source="igiowY0TrKlYKmefXzV6-12" target="PYLvjWSTo0g7mIUMMPKN-9">
          <mxGeometry width="100" height="100" relative="1" as="geometry">
            <mxPoint x="-480" y="620" as="sourcePoint" />
            <mxPoint x="-170" y="610" as="targetPoint" />
            <Array as="points">
              <mxPoint x="-360" y="601" />
              <mxPoint x="-250" y="641" />
              <mxPoint x="-160" y="601" />
            </Array>
          </mxGeometry>
        </mxCell>
        <mxCell id="igiowY0TrKlYKmefXzV6-18" value="Languages" style="swimlane;childLayout=stackLayout;horizontal=1;startSize=50;horizontalStack=0;rounded=1;fontSize=14;fontStyle=0;strokeWidth=2;resizeParent=0;resizeLast=1;shadow=0;dashed=0;align=center;arcSize=4;whiteSpace=wrap;html=1;" vertex="1" parent="1">
          <mxGeometry x="-460" y="-110" width="160" height="120" as="geometry" />
        </mxCell>
        <mxCell id="igiowY0TrKlYKmefXzV6-19" value="language Name&lt;br&gt;available translation&lt;br&gt;translated by" style="align=left;strokeColor=none;fillColor=none;spacingLeft=4;fontSize=12;verticalAlign=top;resizable=0;rotatable=0;part=1;html=1;" vertex="1" parent="igiowY0TrKlYKmefXzV6-18">
          <mxGeometry y="50" width="160" height="70" as="geometry" />
        </mxCell>
        <mxCell id="igiowY0TrKlYKmefXzV6-20" value="" style="edgeStyle=entityRelationEdgeStyle;fontSize=12;html=1;endArrow=ERmany;startArrow=ERmany;rounded=0;entryX=0;entryY=0.25;entryDx=0;entryDy=0;endSize=18;startSize=13;" edge="1" parent="1" source="igiowY0TrKlYKmefXzV6-18" target="PYLvjWSTo0g7mIUMMPKN-6">
          <mxGeometry width="100" height="100" relative="1" as="geometry">
            <mxPoint x="-300" y="55" as="sourcePoint" />
            <mxPoint x="-200" y="-45" as="targetPoint" />
          </mxGeometry>
        </mxCell>
      </root>
    </mxGraphModel>
  </diagram>
</mxfile>
